<?xml version="1.0" encoding="UTF-8" standalone="no"?>
<svg
   xmlns:dc="http://purl.org/dc/elements/1.1/"
   xmlns:cc="http://creativecommons.org/ns#"
   xmlns:rdf="http://www.w3.org/1999/02/22-rdf-syntax-ns#"
   xmlns:svg="http://www.w3.org/2000/svg"
   xmlns="http://www.w3.org/2000/svg"
   xmlns:sodipodi="http://sodipodi.sourceforge.net/DTD/sodipodi-0.dtd"
   xmlns:inkscape="http://www.inkscape.org/namespaces/inkscape"
   version="1.0"
   width="1482.000000pt"
   height="1053.000000pt"
   viewBox="0 0 1482.000000 1053.000000"
   preserveAspectRatio="xMidYMid meet"
   id="svg6"
   sodipodi:docname="Mia-Sprung_2.svg"
   inkscape:version="0.92.4 (5da689c313, 2019-01-14)">
  <metadata
     id="metadata12">
    <rdf:RDF>
      <cc:Work
         rdf:about="">
        <dc:format>image/svg+xml</dc:format>
        <dc:type
           rdf:resource="http://purl.org/dc/dcmitype/StillImage" />
        <dc:title></dc:title>
      </cc:Work>
    </rdf:RDF>
  </metadata>
  <defs
     id="defs10" />
  <sodipodi:namedview
     pagecolor="#ffffff"
     bordercolor="#666666"
     borderopacity="1"
     objecttolerance="10"
     gridtolerance="10"
     guidetolerance="10"
     inkscape:pageopacity="0"
     inkscape:pageshadow="2"
     inkscape:window-width="1439"
     inkscape:window-height="971"
     id="namedview8"
     showgrid="false"
     inkscape:zoom="0.95086724"
     inkscape:cx="1043.1514"
     inkscape:cy="1017.2179"
     inkscape:window-x="0"
     inkscape:window-y="0"
     inkscape:window-maximized="0"
     inkscape:current-layer="svg6" />
  <g
     transform="translate(0.000000,1053.000000) scale(0.100000,-0.100000)"
     fill="#000000"
     stroke="none"
     id="g4"
     style="stroke:#e10000;stroke-opacity:1;stroke-width:65.4975;stroke-miterlimit:4;stroke-dasharray:none">
    <path
       style="stroke:#e10000;stroke-opacity:1;stroke-width:11.33858265;stroke-miterlimit:4;stroke-dasharray:none;fill:none"
       d="m 10180,10487 c 284,-76 449,-295 450,-597 v -105 l 95,-95 c 94,-93 110,-121 83,-148 -18,-18 -124,-15 -240,8 -57,11 -107,20 -111,20 -26,0 -46,-118 -28,-165 6,-16 1,-25 -24,-42 -22,-15 -35,-33 -39,-56 -4,-23 -14,-38 -31,-45 -17,-8 -25,-20 -25,-37 0,-14 -15,-44 -32,-68 -18,-24 -38,-52 -44,-62 -10,-18 -17,-16 -132,24 l -121,43 -87,-26 c -48,-14 -91,-31 -95,-37 -4,-7 -10,-30 -13,-53 -4,-22 -25,-124 -46,-225 -39,-179 -40,-189 -40,-380 0,-178 2,-203 24,-270 16,-50 30,-77 42,-81 11,-4 72,-13 136,-20 113,-12 126,-11 373,21 256,33 257,33 295,66 33,29 45,33 94,33 43,0 71,7 117,31 l 61,30 87,-36 88,-37 43,-79 c 41,-78 42,-81 24,-100 -21,-23 -89,-71 -135,-95 -25,-12 -49,-14 -127,-9 l -97,7 -240,-96 -240,-95 -191,-15 c -170,-14 -210,-14 -365,0 l -174,15 -39,37 c -21,20 -53,60 -72,88 -33,52 -33,53 -84,440 -44,346 -57,416 -111,635 -33,135 -64,251 -68,258 -7,10 -15,10 -40,-3 -17,-9 -31,-18 -31,-20 0,-2 22,-86 48,-187 27,-101 57,-232 67,-291 l 18,-107 -24,-36 c -13,-20 -45,-49 -70,-65 -50,-33 -216,-93 -231,-84 -5,3 -84,10 -176,15 -92,4 -215,16 -274,26 -93,15 -121,15 -210,5 -155,-18 -200,-30 -196,-52 2,-10 116,-139 254,-287 294,-315 437,-494 489,-612 35,-80 36,-83 26,-154 -6,-39 -22,-101 -36,-136 -38,-97 -331,-1082 -364,-1223 -15,-68 -42,-156 -60,-197 -39,-91 -36,-135 16,-228 38,-68 110,-130 218,-187 56,-29 69,-31 195,-37 263,-13 375,-22 387,-31 9,-7 8,-20 -5,-53 -15,-41 -21,-46 -101,-83 -47,-22 -104,-46 -126,-52 -22,-7 -88,-32 -147,-56 -127,-52 -213,-64 -319,-44 -59,11 -77,11 -117,-1 -41,-13 -47,-19 -50,-46 -3,-30 -5,-31 -167,-88 l -165,-57 -29,21 c -24,17 -31,32 -41,88 -7,38 -30,111 -50,163 l -38,95 91,260 90,260 13,320 c 12,281 18,353 54,590 38,257 43,277 97,423 l 56,152 -14,78 -14,77 -295,222 c -822,618 -924,704 -1045,886 -83,123 -100,188 -100,372 v 130 l 40,65 c 60,100 200,266 263,311 32,22 130,77 220,121 89,44 162,81 162,82 0,1 -11,35 -24,74 l -25,72 h 72 c 40,0 100,-5 133,-10 51,-8 92,-6 234,15 223,32 465,50 993,71 406,17 436,17 565,1 165,-21 182,-21 182,-3 0,8 -18,35 -39,61 -22,26 -44,68 -51,92 -10,40 -8,54 20,138 74,231 146,329 298,411 140,76 263,91 412,51 z"
       id="path4530" />
    <path
       style="stroke:#e10000;stroke-opacity:1;stroke-width:11.33858265;stroke-miterlimit:4;stroke-dasharray:none;fill:none"
       d="m 12100,8766 c 124,-28 187,-49 313,-105 142,-62 165,-77 240,-143 l 82,-74 106,-23 c 80,-16 157,-23 312,-28 l 207,-6 30,-65 30,-64 46,7 c 68,10 67,9 146,108 40,51 130,149 199,220 110,110 132,127 156,125 16,-1 46,8 66,21 55,34 55,34 -51,-234 -21,-55 -57,-136 -80,-180 -63,-124 -63,-121 5,-212 50,-65 63,-91 78,-153 18,-75 68,-187 131,-290 18,-30 40,-82 50,-115 20,-73 178,-514 230,-645 26,-65 63,-132 120,-213 81,-114 84,-120 98,-205 10,-64 35,-137 91,-272 81,-197 109,-304 92,-355 -6,-17 -38,-62 -72,-101 -34,-39 -88,-108 -120,-152 l -59,-82 h -70 c -39,0 -161,5 -271,11 -260,15 -258,13 -267,133 -3,49 -17,120 -30,160 -20,63 -31,79 -99,146 -42,41 -105,93 -140,115 -213,131 -289,187 -351,257 -143,164 -301,305 -413,368 -33,19 -118,75 -190,125 -216,151 -225,155 -344,155 -264,0 -563,-121 -932,-380 -172,-120 -195,-150 -204,-270 -8,-102 -41,-219 -101,-357 -24,-56 -44,-109 -44,-117 0,-13 15,-16 84,-16 81,0 516,60 721,99 55,10 174,29 263,41 l 164,23 101,-70 101,-70 42,-127 43,-126 -19,-67 c -13,-48 -39,-96 -95,-179 -73,-107 -77,-114 -67,-144 11,-30 3,-46 -163,-343 -170,-303 -175,-313 -175,-369 0,-56 -2,-61 -62,-137 l -61,-79 -92,-10 c -56,-6 -109,-19 -134,-31 -30,-16 -59,-21 -116,-21 h -76 l -52,-47 c -29,-27 -95,-88 -148,-138 -81,-76 -127,-108 -297,-207 -111,-65 -206,-118 -212,-118 -13,0 -13,-12 6,250 l 17,225 115,230 c 63,127 116,232 118,234 3,3 30,0 60,-7 41,-8 77,-9 134,-1 70,10 85,9 132,-9 48,-18 61,-19 123,-8 l 69,11 83,117 c 45,65 163,223 263,353 l 181,235 -3,58 -3,57 -55,3 c -45,2 -81,-6 -200,-48 -119,-42 -194,-79 -420,-204 -151,-84 -435,-231 -630,-326 -412,-201 -416,-202 -507,-147 -32,20 -77,41 -99,48 -39,11 -49,9 -165,-34 -233,-85 -354,-116 -1004,-251 -614,-128 -661,-136 -850,-150 -267,-21 -503,-13 -930,30 -187,19 -464,45 -615,59 -327,29 -539,72 -795,162 -133,47 -180,58 -275,68 l -115,12 -85,-45 c -106,-56 -277,-170 -352,-234 -115,-99 -243,-317 -308,-526 -34,-111 -54,-155 -116,-255 l -74,-122 -253,-130 c -138,-72 -337,-184 -441,-249 -300,-187 -546,-314 -841,-433 -143,-58 -273,-112 -290,-121 -16,-8 -116,-84 -222,-168 -185,-147 -195,-157 -262,-258 -58,-85 -74,-119 -91,-187 -12,-46 -61,-219 -110,-384 -97,-326 -121,-420 -145,-565 -9,-52 -27,-131 -40,-175 -13,-44 -26,-108 -30,-141 -6,-51 -11,-65 -33,-81 -40,-29 -89,-43 -152,-43 h -57 L 1435,435 C 1359,350 1292,273 1286,266 1280,258 1195,199 1097,135 934,29 916,20 884,26 c -31,6 -34,9 -34,41 0,30 106,564 113,568 83,51 75,49 156,36 67,-11 82,-11 118,4 36,15 44,23 58,65 11,33 14,64 10,92 -9,62 17,124 110,260 105,153 143,260 299,851 117,440 126,480 132,595 7,117 6,122 -13,122 -22,0 -67,-45 -110,-110 -113,-171 -413,-1157 -413,-1356 0,-53 -3,-64 -28,-87 -32,-31 -129,-67 -180,-67 -29,0 -78,-28 -261,-148 C 587,726 582,724 294,666 131,633 130,633 124,653 c -10,32 250,549 287,571 52,31 142,16 207,-32 l 33,-25 55,29 54,29 v 52 c 0,56 14,82 240,433 l 93,144 114,366 c 63,201 141,467 173,591 60,226 60,226 60,369 v 143 l 36,48 c 56,72 164,109 325,109 230,0 626,110 799,222 60,38 99,73 130,114 44,58 45,61 48,146 4,82 2,91 -33,170 -101,224 -199,571 -229,803 l -21,170 -80,12 c -44,6 -143,18 -220,27 l -140,17 -148,-50 c -133,-45 -158,-57 -235,-115 -48,-36 -117,-99 -154,-140 l -66,-75 -7,-84 c -6,-68 -3,-103 14,-178 32,-145 70,-405 88,-607 14,-154 15,-199 5,-280 -7,-52 -18,-102 -24,-109 -6,-8 -29,-23 -50,-34 -24,-12 -50,-39 -73,-74 l -35,-55 v -142 c 0,-128 -3,-150 -30,-237 -28,-91 -33,-99 -97,-163 -57,-56 -91,-78 -208,-137 -174,-86 -509,-221 -660,-265 -17,-5 -30,9 -75,81 -30,48 -105,141 -167,207 -100,106 -113,125 -113,156 0,30 6,39 43,62 25,16 64,29 97,33 91,11 269,54 365,87 68,24 108,46 165,90 129,101 167,169 217,377 33,142 34,149 23,239 -16,131 -95,355 -219,626 -61,132 -81,222 -81,363 1,161 36,301 111,442 67,124 217,289 347,382 48,35 164,129 258,210 215,185 270,224 470,337 323,182 556,252 843,252 272,1 313,10 1168,281 142,44 391,96 568,118 89,11 296,25 465,31 586,21 1406,68 1488,86 12,2 22,11 22,18 0,8 -43,51 -96,97 -120,105 -238,248 -254,308 -11,42 -10,45 24,96 35,51 38,52 111,68 42,10 105,17 141,17 48,0 66,4 70,15 4,8 -12,46 -35,84 -64,108 -59,112 82,72 70,-20 169,-36 306,-51 195,-21 206,-21 349,-6 154,17 257,47 396,117 64,31 70,33 62,20 -8,-12 15,-30 297,-236 142,-103 261,-195 266,-204 5,-9 14,-39 20,-67 12,-50 11,-54 -40,-185 -51,-132 -52,-140 -94,-439 -33,-230 -47,-378 -60,-600 l -16,-295 -91,-279 -90,-278 43,-97 c 23,-53 50,-133 59,-179 10,-46 19,-84 21,-86 18,-15 99,-56 110,-56 8,0 102,31 209,69 192,68 195,69 195,97 0,34 19,40 82,26 27,-6 81,-5 154,3 109,11 124,16 339,104 124,51 231,96 239,101 13,7 51,109 51,138 0,7 -14,32 -32,55 l -31,42 -244,2 -244,3 -67,37 c -167,93 -256,208 -217,283 8,15 28,83 45,151 40,157 317,1110 375,1289 24,74 49,165 55,201 11,65 11,67 -25,156 -52,125 -193,305 -474,602 -121,129 -221,237 -221,241 0,4 40,13 88,19 73,10 108,10 207,-3 66,-9 165,-16 222,-16 56,0 133,-5 171,-12 67,-11 70,-11 174,26 58,21 132,55 164,76 32,22 59,38 61,37 1,-2 18,-131 38,-287 34,-272 37,-288 71,-357 49,-99 129,-168 206,-177 222,-25 316,-28 523,-12 l 210,16 228,90 229,90 h 99 99 l 95,53 c 73,40 101,62 120,92 13,22 24,47 24,55 0,8 -28,62 -62,120 l -62,105 -90,37 c -50,20 -97,37 -105,37 -9,1 -45,-15 -80,-34 -55,-29 -75,-35 -131,-35 -54,0 -69,-4 -85,-21 -10,-11 -26,-25 -34,-29 -9,-5 -114,-23 -235,-40 -192,-28 -233,-31 -337,-24 -117,6 -119,7 -133,34 l -14,28 102,27 c 56,16 149,52 207,81 95,47 110,58 153,116 42,56 55,66 120,92 39,16 160,67 267,114 264,115 382,147 597,162 93,6 179,13 193,15 14,2 133,2 265,0 233,-3 244,-4 395,-39 z"
       id="path4528" />
  </g>
</svg>
